<svg width="616" height="173" viewBox="0 0 616 173" fill="none" xmlns="http://www.w3.org/2000/svg">
<path d="M322.469 139.547C299.406 139.547 285.062 123.656 285.062 100.031C285.062 76.4062 299.406 60.6562 322.469 60.6562C345.531 60.6562 360.016 76.4062 360.016 100.031C360.016 123.656 345.531 139.547 322.469 139.547ZM322.609 123.375C333.297 123.375 338.781 113.391 338.781 100.031C338.781 86.5312 333.297 76.5469 322.609 76.5469C311.781 76.5469 306.156 86.5312 306.156 100.031C306.156 113.391 311.781 123.375 322.609 123.375Z" fill="#252525"/>
<path d="M392.469 139.547C369.406 139.547 355.062 123.656 355.062 100.031C355.062 76.4062 369.406 60.6562 392.469 60.6562C415.531 60.6562 430.016 76.4062 430.016 100.031C430.016 123.656 415.531 139.547 392.469 139.547ZM392.609 123.375C403.297 123.375 408.781 113.391 408.781 100.031C408.781 86.5312 403.297 76.5469 392.609 76.5469C381.781 76.5469 376.156 86.5312 376.156 100.031C376.156 113.391 381.781 123.375 392.609 123.375Z" fill="#252525"/>
<path d="M458.969 36.1875V138H438.156V36.1875H458.969ZM464.284 116.625C464.284 99.6094 478.066 93.9844 492.691 93.1406C498.175 92.7891 508.441 92.2969 511.675 92.1562V85.9688C511.534 79.6406 507.175 75.8438 499.441 75.8438C492.409 75.8438 487.909 79.0781 486.784 84.2812H466.956C468.222 71.0625 479.753 60.6562 500.003 60.6562C516.597 60.6562 532.347 68.1094 532.347 86.5312V138H512.659V127.453H512.097C508.3 134.484 501.128 139.406 489.737 139.406C475.112 139.406 464.284 131.812 464.284 116.625ZM484.253 116.062C484.253 121.969 489.034 125.062 495.644 125.062C505.066 125.062 511.816 118.734 511.675 110.719V105.094C508.511 105.234 499.652 105.727 496.066 106.078C488.894 106.781 484.253 110.156 484.253 116.062ZM541.459 138V36.1875H562.272V74.4375H562.834C565.787 68.25 571.834 60.6562 584.631 60.6562C601.506 60.6562 615.709 73.7344 615.709 99.8906C615.709 125.344 602.069 139.266 584.631 139.266C572.116 139.266 565.787 132.094 562.834 125.766H561.991V138H541.459ZM561.85 99.75C561.85 113.531 567.756 122.672 578.022 122.672C588.709 122.672 594.334 113.25 594.334 99.75C594.334 86.3906 588.709 77.25 578.022 77.25C567.616 77.25 561.85 85.9688 561.85 99.75Z" fill="#252525"/>
<path d="M258.641 60.6562C272.844 60.6562 282.688 70.0781 282.688 86.6719V138H261.875V90.75C261.875 82.0312 256.812 77.8125 249.922 77.8125C242.047 77.8125 237.547 83.2969 237.547 91.3125V138H217.297V90.1875C217.297 82.5938 212.516 77.8125 205.484 77.8125C198.453 77.8125 192.969 83.4375 192.969 92.1562V138H172.156V75H192.828C196.062 66.1406 203.797 60.6562 214.062 60.6562C224.609 60.6562 232.344 66.1406 234.875 75H235.578C238.812 66.2812 247.391 60.6562 258.641 60.6562Z" fill="#252525"/>
<path d="M172 50H192V66H172V50Z" fill="#252525"/>
<path d="M58.8608 25.2097C41.3334 50.2558 16.7931 107.135 58.8589 134.281C79.4341 121.354 108.241 81.4421 58.8608 25.2097Z" fill="#6FBB74"/>
<path d="M126.29 67.827C99.0532 63.2988 38.3469 68.8622 40.9748 126.658C61.1024 140.834 111.856 148.777 126.29 67.827Z" fill="#6FBB74"/>
<path d="M72.5409 135.762C73.6427 112.895 70.6916 74.5019 37.0003 87.0001C29.8452 105.841 24.3217 138.599 72.5409 135.762Z" fill="#6FBB74"/>
<path d="M8.92621 69.3938C9.94926 92.8179 25.561 129.104 54.0007 134.5C58.6328 118.636 50.9383 92.9331 8.92621 69.3938Z" fill="#6FBB74"/>
</svg>
