<svg width="512" height="512" viewBox="0 0 512 512" fill="none" xmlns="http://www.w3.org/2000/svg">
<g clip-path="url(#clip0_45_150)">
<path d="M215.265 30.0242C151.165 121.621 61.4178 329.635 215.258 428.914C290.505 381.638 395.857 235.674 215.265 30.0242Z" fill="#6FBB74"/>
<path d="M461.859 185.881C362.25 169.321 140.238 189.667 149.849 401.035C223.458 452.877 409.07 481.926 461.859 185.881Z" fill="#6FBB74"/>
<path d="M265.29 434.328C269.319 350.703 258.527 210.293 135.313 256C109.146 324.904 88.9455 444.705 265.29 434.328Z" fill="#6FBB74"/>
<path d="M32.6412 191.612C36.3826 277.277 93.4768 409.98 197.485 429.714C214.425 371.696 186.285 277.698 32.6412 191.612Z" fill="#6FBB74"/>
</g>
<defs>
<clipPath id="clip0_45_150">
<rect width="512" height="512" fill="white"/>
</clipPath>
</defs>
</svg>
