<svg width="452" height="173" viewBox="0 0 452 173" fill="none" xmlns="http://www.w3.org/2000/svg">
<path d="M158.469 139.547C135.406 139.547 121.062 123.656 121.062 100.031C121.062 76.4062 135.406 60.6562 158.469 60.6562C181.531 60.6562 196.016 76.4062 196.016 100.031C196.016 123.656 181.531 139.547 158.469 139.547ZM158.609 123.375C169.297 123.375 174.781 113.391 174.781 100.031C174.781 86.5312 169.297 76.5469 158.609 76.5469C147.781 76.5469 142.156 86.5312 142.156 100.031C142.156 113.391 147.781 123.375 158.609 123.375Z" fill="#252525"/>
<path d="M228.469 139.547C205.406 139.547 191.062 123.656 191.062 100.031C191.062 76.4062 205.406 60.6562 228.469 60.6562C251.531 60.6562 266.016 76.4062 266.016 100.031C266.016 123.656 251.531 139.547 228.469 139.547ZM228.609 123.375C239.297 123.375 244.781 113.391 244.781 100.031C244.781 86.5312 239.297 76.5469 228.609 76.5469C217.781 76.5469 212.156 86.5312 212.156 100.031C212.156 113.391 217.781 123.375 228.609 123.375Z" fill="#252525"/>
<path d="M294.969 36.1875V138H274.156V36.1875H294.969ZM300.284 116.625C300.284 99.6094 314.066 93.9844 328.691 93.1406C334.175 92.7891 344.441 92.2969 347.675 92.1562V85.9688C347.534 79.6406 343.175 75.8438 335.441 75.8438C328.409 75.8438 323.909 79.0781 322.784 84.2812H302.956C304.222 71.0625 315.753 60.6562 336.003 60.6562C352.597 60.6562 368.347 68.1094 368.347 86.5312V138H348.659V127.453H348.097C344.3 134.484 337.128 139.406 325.737 139.406C311.112 139.406 300.284 131.812 300.284 116.625ZM320.253 116.062C320.253 121.969 325.034 125.062 331.644 125.062C341.066 125.062 347.816 118.734 347.675 110.719V105.094C344.511 105.234 335.652 105.727 332.066 106.078C324.894 106.781 320.253 110.156 320.253 116.062ZM377.459 138V36.1875H398.272V74.4375H398.834C401.787 68.25 407.834 60.6562 420.631 60.6562C437.506 60.6562 451.709 73.7344 451.709 99.8906C451.709 125.344 438.069 139.266 420.631 139.266C408.116 139.266 401.787 132.094 398.834 125.766H397.991V138H377.459ZM397.85 99.75C397.85 113.531 403.756 122.672 414.022 122.672C424.709 122.672 430.334 113.25 430.334 99.75C430.334 86.3906 424.709 77.25 414.022 77.25C403.616 77.25 397.85 85.9688 397.85 99.75Z" fill="#252525"/>
<path d="M94.6406 60.6562C108.844 60.6562 118.688 70.0781 118.688 86.6719V138H97.875V90.75C97.875 82.0312 92.8125 77.8125 85.9219 77.8125C78.0469 77.8125 73.5469 83.2969 73.5469 91.3125V138H53.2969V90.1875C53.2969 82.5938 48.5156 77.8125 41.4844 77.8125C34.4531 77.8125 28.9688 83.4375 28.9688 92.1562V138H8.15625V75H28.8281C32.0625 66.1406 39.7969 60.6562 50.0625 60.6562C60.6094 60.6562 68.3438 66.1406 70.875 75H71.5781C74.8125 66.2812 83.3906 60.6562 94.6406 60.6562Z" fill="#252525"/>
<path d="M8 50H28V66H8V50Z" fill="#252525"/>
</svg>
